<svg width="200" height="60" viewBox="0 0 200 60" xmlns="http://www.w3.org/2000/svg">
  <defs>
    <linearGradient id="darkPurpleGradient" x1="0%" y1="0%" x2="100%" y2="100%">
      <stop offset="0%" style="stop-color:#7C3AED;stop-opacity:1" />
      <stop offset="100%" style="stop-color:#5B21B6;stop-opacity:1" />
    </linearGradient>
    <linearGradient id="darkAccentGradient" x1="0%" y1="0%" x2="100%" y2="100%">
      <stop offset="0%" style="stop-color:#A855F7;stop-opacity:1" />
      <stop offset="100%" style="stop-color:#8B5CF6;stop-opacity:1" />
    </linearGradient>
    <filter id="darkGlow">
      <feGaussianBlur stdDeviation="3" result="coloredBlur"/>
      <feMerge> 
        <feMergeNode in="coloredBlur"/>
        <feMergeNode in="SourceGraphic"/>
      </feMerge>
    </filter>
  </defs>
  
  <!-- Background circle -->
  <circle cx="30" cy="30" r="28" fill="url(#darkPurpleGradient)" filter="url(#darkGlow)" opacity="0.9"/>
  
  <!-- Mail envelope shape -->
  <g transform="translate(8, 12)">
    <!-- Envelope body -->
    <rect x="6" y="12" width="32" height="24" rx="2" fill="#000000" opacity="0.95"/>
    
    <!-- Envelope flap -->
    <polygon points="6,12 22,24 38,12" fill="url(#darkAccentGradient)" opacity="0.9"/>
    
    <!-- Envelope border -->
    <rect x="6" y="12" width="32" height="24" rx="2" fill="none" stroke="#A855F7" stroke-width="1.5" opacity="0.8"/>
    
    <!-- Mail lines decoration -->
    <line x1="10" y1="20" x2="18" y2="20" stroke="url(#darkPurpleGradient)" stroke-width="2" opacity="0.7"/>
    <line x1="10" y1="24" x2="22" y2="24" stroke="url(#darkPurpleGradient)" stroke-width="2" opacity="0.7"/>
    <line x1="10" y1="28" x2="16" y2="28" stroke="url(#darkPurpleGradient)" stroke-width="2" opacity="0.7"/>
    
    <!-- @ symbol -->
    <circle cx="30" cy="26" r="4" fill="none" stroke="url(#darkAccentGradient)" stroke-width="1.5"/>
    <circle cx="30" cy="26" r="1.5" fill="url(#darkAccentGradient)"/>
    <path d="M 32 24 Q 34 24 34 26 Q 34 28 32 28" fill="none" stroke="url(#darkAccentGradient)" stroke-width="1.5"/>
  </g>
  
  <!-- Company name -->
  <text x="70" y="25" font-family="Roboto, Arial, sans-serif" font-size="18" font-weight="700" fill="#A855F7" filter="url(#darkGlow)">
    WebMail
  </text>
  
  <!-- Tagline -->
  <text x="70" y="42" font-family="Roboto, Arial, sans-serif" font-size="12" font-weight="400" fill="url(#darkAccentGradient)" opacity="0.9">
    Secure • Modern • Elegant
  </text>
  
  <!-- Decorative elements -->
  <circle cx="170" cy="15" r="2" fill="url(#darkAccentGradient)" opacity="0.6"/>
  <circle cx="180" cy="25" r="1.5" fill="url(#darkPurpleGradient)" opacity="0.5"/>
  <circle cx="185" cy="35" r="1" fill="url(#darkAccentGradient)" opacity="0.7"/>
  
  <!-- Subtle glow effect -->
  <ellipse cx="100" cy="30" rx="80" ry="20" fill="url(#darkPurpleGradient)" opacity="0.1"/>
</svg>
